<svg width="19" height="19" viewBox="0 0 19 19" fill="none" xmlns="http://www.w3.org/2000/svg">
<path d="M16.5 8C16.5 13.25 9.75 17.75 9.75 17.75C9.75 17.75 3 13.25 3 8C3 6.20979 3.71116 4.4929 4.97703 3.22703C6.2429 1.96116 7.95979 1.25 9.75 1.25C11.5402 1.25 13.2571 1.96116 14.523 3.22703C15.7888 4.4929 16.5 6.20979 16.5 8Z" stroke="#E0E0E0" stroke-width="2" stroke-linecap="round" stroke-linejoin="round"/>
<path d="M9.75 9.5C10.9926 9.5 12 8.49264 12 7.25C12 6.00736 10.9926 5 9.75 5C8.50736 5 7.5 6.00736 7.5 7.25C7.5 8.49264 8.50736 9.5 9.75 9.5Z" stroke="#E0E0E0" stroke-width="2" stroke-linecap="round" stroke-linejoin="round"/>
</svg>
